<svg xmlns="http://www.w3.org/2000/svg" version="1.1" width="500px" height="500px" style="shape-rendering:geometricPrecision; text-rendering:geometricPrecision; image-rendering:optimizeQuality; fill-rule:evenodd; clip-rule:evenodd" xmlns:xlink="http://www.w3.org/1999/xlink">
    <g><path style="opacity:0.983" fill="#65a30d" d="M 260.5,63.5 C 263.394,64.8823 265.894,66.8823 268,69.5C 310.186,123.548 327.519,184.881 320,253.5C 318.637,266.676 316.304,279.676 313,292.5C 302.047,297.27 291.214,302.437 280.5,308C 272.775,312.392 265.608,317.559 259,323.5C 263.491,311.03 267.825,298.363 272,285.5C 281.52,255.197 285.52,224.197 284,192.5C 283.387,186.436 282.387,180.436 281,174.5C 276.126,205.329 268.126,235.329 257,264.5C 239.78,303.258 215.447,336.925 184,365.5C 173.024,332.595 165.024,298.929 160,264.5C 155.942,232.517 161.275,202.184 176,173.5C 186.716,153.79 199.383,135.457 214,118.5C 227.367,104.801 240.367,90.8009 253,76.5C 256.155,72.5198 258.655,68.1864 260.5,63.5 Z"/></g>
    <g><path style="opacity:0.975" fill="#65a30d" d="M 61.5,280.5 C 92.9808,278.12 121.981,285.287 148.5,302C 153.844,314.863 158.511,328.03 162.5,341.5C 162.167,341.833 161.833,342.167 161.5,342.5C 150.312,331.815 137.645,323.315 123.5,317C 122.5,316.333 121.5,316.333 120.5,317C 146.506,335.158 164.172,359.324 173.5,389.5C 142.233,390.814 112.566,384.647 84.5,371C 72.8719,364.383 62.7052,355.883 54,345.5C 46.6667,336.167 39.3333,326.833 32,317.5C 25.0987,309.928 17.5987,303.095 9.5,297C 25.8982,288.143 43.2316,282.643 61.5,280.5 Z"/></g>
    <g><path style="opacity:0.98" fill="#65a30d" d="M 328.5,313.5 C 383.452,309.098 431.785,324.598 473.5,360C 479.532,365.698 485.199,371.698 490.5,378C 482.758,380.469 475.092,383.136 467.5,386C 444.339,398.413 421.339,411.08 398.5,424C 367.927,436.78 336.26,440.447 303.5,435C 280.366,431.301 258.033,424.968 236.5,416C 264.491,381.816 300.158,359.482 343.5,349C 322.752,347.682 302.752,351.015 283.5,359C 256.664,369.746 231.664,383.579 208.5,400.5C 208.167,400.167 207.833,399.833 207.5,399.5C 227.173,363.999 255.84,338.499 293.5,323C 305.004,318.71 316.67,315.544 328.5,313.5 Z"/></g>
</svg>